<svg width="400" height="262" viewBox="0 0 400 262" fill="none" xmlns="http://www.w3.org/2000/svg">
<path d="M186.191 39.3762L175.725 64.5325L192.729 87.2474L195.476 81.8236L180.102 62.7969L186.191 39.3762Z" fill="#FF9A57"/>
<path d="M180.102 62.797L186.191 39.3763L175.725 64.5326L180.102 62.797Z" fill="#FFD557"/>
<path d="M213.805 39.3762L219.892 62.7969L204.52 81.8236L207.265 87.2474L224.27 64.5325L213.805 39.3762Z" fill="#FFAE57"/>
<path d="M224.27 64.5326L213.805 39.3763L219.891 62.797L224.27 64.5326Z" fill="#FFD557"/>
<path d="M193.251 100.085L186.502 88.3987L193.251 76.7104H206.746L213.492 88.3987L206.746 100.085H193.251Z" fill="#D4314F"/>
<path d="M202.165 93.3109L186.502 88.3984L193.251 76.7101L202.165 93.3109Z" fill="#FF5D57"/>
<path d="M213.492 88.3982L202.165 93.3107L206.746 100.084L213.492 88.3982Z" fill="#FF5D57"/>
<path d="M193.251 76.7106L202.165 93.3114L206.746 76.7106H193.251Z" fill="#FF9A57"/>
<path d="M202.165 93.3109L213.492 88.3984L206.746 76.7101L202.165 93.3109Z" fill="#FF7B57"/>
<path d="M208.243 177.686L199.999 220.09L191.752 177.686V155.006L199.999 149.578L208.243 155.006V177.686Z" fill="#E957FF"/>
<path d="M200 220.09L191.751 177.686V155.006L200 149.578V220.09Z" fill="#BF57FF"/>
<path d="M165.99 191.955L162.747 177.424L188.809 158.397V165.452L165.99 191.955Z" fill="#FF57CF"/>
<path d="M162.747 177.424L152.339 152.733L188.808 158.397L162.747 177.424Z" fill="#FF5795"/>
<path d="M152.339 152.733L101.291 168.642L94.9525 141.279L152.339 152.733Z" fill="#FF57CF"/>
<path d="M101.291 168.642L162.746 177.424L152.339 152.732L101.291 168.642Z" fill="#FF57B3"/>
<path d="M162.747 177.424L133.102 196.192L165.99 191.955L162.747 177.424Z" fill="#E957FF"/>
<path d="M133.101 196.193L145.191 233.785L165.99 191.955L133.101 196.193Z" fill="#BF57FF"/>
<path d="M133.101 196.193L101.291 168.642L162.746 177.424L133.101 196.193Z" fill="#BF57FF"/>
<path d="M133.101 196.193L116.059 248.45L145.191 233.785L133.101 196.193Z" fill="#8C57FF"/>
<path d="M76.5172 239.959L116.059 248.449L90.8567 261.135L76.5172 239.959Z" fill="#57CAFF"/>
<path d="M116.059 248.45L96.2882 208.644L133.101 196.193L116.059 248.45Z" fill="#575DFF"/>
<path d="M76.5172 239.959L96.2887 208.644L116.059 248.45L76.5172 239.959Z" fill="#578FFF"/>
<path d="M96.2884 208.644L101.29 168.642L133.101 196.192L96.2884 208.644Z" fill="#8C57FF"/>
<path d="M59.8101 182.304L101.29 168.642L94.952 141.279L59.8101 182.304Z" fill="#D857FF"/>
<path d="M59.8101 182.303L96.2884 208.644L101.29 168.642L59.8101 182.303Z" fill="#575DFF"/>
<path d="M59.8101 215.283L96.2884 208.644L76.5169 239.958L59.8101 215.283Z" fill="#57AEFF"/>
<path d="M59.8101 215.283V182.303L96.2884 208.644L59.8101 215.283Z" fill="#578FFF"/>
<path d="M152.339 152.733L188.808 103.273V158.397L152.339 152.733Z" fill="#FF5776"/>
<path d="M152.339 152.733L149.545 111.565L188.808 103.273L152.339 152.733Z" fill="#FF5757"/>
<path d="M127.957 147.861L149.545 111.566L152.339 152.732L127.957 147.861Z" fill="#FF5795"/>
<path d="M149.545 111.565L154.819 71.0099L188.808 103.272L149.545 111.565Z" fill="#FF5D57"/>
<path d="M94.9522 141.279L149.545 111.566L127.957 147.861L94.9522 141.279Z" fill="#FF5776"/>
<path d="M149.545 111.565L117.931 82.2938L154.819 71.0099L149.545 111.565Z" fill="#FF7B57"/>
<path d="M117.932 82.2938L101.291 103.273L149.546 111.565L117.932 82.2938Z" fill="#FF5D57"/>
<path d="M94.9522 141.279L101.291 103.273L149.545 111.565L94.9522 141.279Z" fill="#FF5757"/>
<path d="M65.6836 153.347L72.4973 111.566L94.952 141.28L65.6836 153.347Z" fill="#FF5D57"/>
<path d="M41.6915 135.648L72.497 111.566L65.6832 153.347L41.6915 135.648Z" fill="#FF7B57"/>
<path d="M72.4973 111.566L101.29 103.273L94.952 141.28L72.4973 111.566Z" fill="#FF7B57"/>
<path d="M72.4973 111.565V78.8802L101.29 103.272L72.4973 111.565Z" fill="#FF9A57"/>
<path d="M46.6306 100.658L72.4979 111.566L41.6914 135.648L46.6306 100.658Z" fill="#FF9A57"/>
<path d="M72.4973 78.8809L117.931 82.2935L101.29 103.273L72.4973 78.8809Z" fill="#FF7B57"/>
<path d="M117.932 82.2938L106.236 43.1314L154.818 71.0099L117.932 82.2938Z" fill="#FF9A57"/>
<path d="M72.4973 78.8808L106.236 43.1309L117.931 82.2933L72.4973 78.8808Z" fill="#FFAE57"/>
<path d="M46.6306 100.657L72.4979 78.8807V111.566L46.6306 100.657Z" fill="#FFAE57"/>
<path d="M72.4973 78.8807L88.0353 32.6864L106.236 43.1308L72.4973 78.8807Z" fill="#FFD557"/>
<path d="M22.4196 77.7323L72.4976 78.8804L46.6304 100.657L22.4196 77.7323Z" fill="#FFD557"/>
<path d="M72.4973 78.8807L46.6301 30.4395L88.0353 32.6864L72.4973 78.8807Z" fill="#FFE957"/>
<path d="M22.4196 77.7326L30.5441 48.1463L72.4976 78.8807L22.4196 77.7326Z" fill="#FFE957"/>
<path d="M30.5445 48.1462L46.6308 30.4395L72.497 78.8807L30.5445 48.1462Z" fill="#FFEF82"/>
<path d="M30.5445 48.1464L13.9427 28.6639L46.6309 30.4396L30.5445 48.1464Z" fill="#FFE957"/>
<path d="M13.943 28.6645L30.5448 48.147L22.4193 77.7323L13.943 28.6645Z" fill="#FFEF82"/>
<path d="M233.968 191.955L237.211 177.424L211.149 158.397V165.452L233.968 191.955Z" fill="#FF57CF"/>
<path d="M237.211 177.424L247.619 152.733L211.15 158.397L237.211 177.424Z" fill="#FF5795"/>
<path d="M247.619 152.733L298.667 168.642L305.006 141.279L247.619 152.733Z" fill="#FF57CF"/>
<path d="M298.667 168.642L237.212 177.424L247.619 152.732L298.667 168.642Z" fill="#FF57B3"/>
<path d="M237.212 177.424L266.857 196.192L233.969 191.955L237.212 177.424Z" fill="#E957FF"/>
<path d="M266.857 196.193L254.767 233.785L233.968 191.955L266.857 196.193Z" fill="#BF57FF"/>
<path d="M266.857 196.193L298.668 168.642L237.212 177.424L266.857 196.193Z" fill="#BF57FF"/>
<path d="M266.857 196.193L283.899 248.45L254.767 233.785L266.857 196.193Z" fill="#8C57FF"/>
<path d="M323.441 239.959L283.899 248.449L309.102 261.135L323.441 239.959Z" fill="#57CAFF"/>
<path d="M283.899 248.45L303.67 208.644L266.857 196.193L283.899 248.45Z" fill="#575DFF"/>
<path d="M323.441 239.959L303.67 208.644L283.899 248.45L323.441 239.959Z" fill="#578FFF"/>
<path d="M303.67 208.644L298.668 168.642L266.857 196.192L303.67 208.644Z" fill="#8C57FF"/>
<path d="M340.148 182.304L298.668 168.642L305.006 141.279L340.148 182.304Z" fill="#D857FF"/>
<path d="M340.148 182.303L303.67 208.644L298.668 168.642L340.148 182.303Z" fill="#575DFF"/>
<path d="M340.148 215.283L303.67 208.644L323.441 239.958L340.148 215.283Z" fill="#57AEFF"/>
<path d="M340.148 215.283V182.303L303.67 208.644L340.148 215.283Z" fill="#578FFF"/>
<path d="M247.619 152.733L211.15 103.273V158.397L247.619 152.733Z" fill="#FF5776"/>
<path d="M247.619 152.733L250.413 111.565L211.15 103.273L247.619 152.733Z" fill="#FF5757"/>
<path d="M272.001 147.861L250.414 111.566L247.619 152.732L272.001 147.861Z" fill="#FF5795"/>
<path d="M250.413 111.565L245.139 71.0099L211.15 103.272L250.413 111.565Z" fill="#FF5D57"/>
<path d="M305.006 141.279L250.414 111.566L272.001 147.861L305.006 141.279Z" fill="#FF5776"/>
<path d="M250.413 111.565L282.027 82.2938L245.14 71.0099L250.413 111.565Z" fill="#FF7B57"/>
<path d="M282.027 82.2938L298.668 103.273L250.413 111.565L282.027 82.2938Z" fill="#FF5D57"/>
<path d="M305.006 141.279L298.668 103.273L250.414 111.565L305.006 141.279Z" fill="#FF5757"/>
<path d="M334.275 153.347L327.461 111.566L305.006 141.28L334.275 153.347Z" fill="#FF5D57"/>
<path d="M358.267 135.648L327.461 111.566L334.275 153.347L358.267 135.648Z" fill="#FF7B57"/>
<path d="M327.461 111.566L298.668 103.273L305.006 141.28L327.461 111.566Z" fill="#FF7B57"/>
<path d="M327.461 111.565V78.8802L298.668 103.272L327.461 111.565Z" fill="#FF9A57"/>
<path d="M353.328 100.658L327.46 111.566L358.267 135.648L353.328 100.658Z" fill="#FF9A57"/>
<path d="M327.461 78.8809L282.027 82.2935L298.668 103.273L327.461 78.8809Z" fill="#FF7B57"/>
<path d="M282.027 82.2938L293.722 43.1314L245.14 71.0099L282.027 82.2938Z" fill="#FF9A57"/>
<path d="M327.461 78.8808L293.722 43.1309L282.027 82.2933L327.461 78.8808Z" fill="#FFAE57"/>
<path d="M353.328 100.657L327.46 78.8807V111.566L353.328 100.657Z" fill="#FFAE57"/>
<path d="M327.461 78.8807L311.923 32.6864L293.722 43.1308L327.461 78.8807Z" fill="#FFD557"/>
<path d="M377.539 77.7323L327.461 78.8804L353.328 100.657L377.539 77.7323Z" fill="#FFD557"/>
<path d="M327.461 78.8807L353.328 30.4395L311.923 32.6864L327.461 78.8807Z" fill="#FFE957"/>
<path d="M377.539 77.7326L369.414 48.1463L327.461 78.8807L377.539 77.7326Z" fill="#FFE957"/>
<path d="M369.414 48.1462L353.327 30.4395L327.461 78.8807L369.414 48.1462Z" fill="#FFEF82"/>
<path d="M369.414 48.1464L386.016 28.6639L353.327 30.4396L369.414 48.1464Z" fill="#FFE957"/>
<path d="M386.015 28.6645L369.413 48.147L377.539 77.7323L386.015 28.6645Z" fill="#FFEF82"/>
<mask id="mask0_7_2155" style="mask-type:luminance" maskUnits="userSpaceOnUse" x="0" y="0" width="400" height="262">
<path d="M0 -5.86972e-06H400V261.135H0V-5.86972e-06Z" fill="white"/>
</mask>
<g mask="url(#mask0_7_2155)">
<g opacity="0.5">
<mask id="mask1_7_2155" style="mask-type:luminance" maskUnits="userSpaceOnUse" x="13" y="28" width="374" height="234">
<path d="M386.035 28.6646L353.348 30.4392L311.945 32.6862L293.742 43.1306L245.162 71.0101L211.172 103.272V100.085L207.992 97.9627L213.514 88.3979L210.428 83.0533L224.293 64.5328L213.828 39.3765L219.914 62.7972L207.56 78.0842L206.768 76.7107H193.273L192.48 78.0863L180.124 62.7972L186.213 39.3765L175.747 64.5328L189.613 83.0533L186.525 88.3979L192.041 97.9504L188.831 100.085V103.272L154.841 71.0101L106.258 43.1306L88.0574 32.6862L46.6532 30.4392L13.965 28.6646L22.4413 77.7323L46.6532 100.657L41.7138 135.648L65.7056 153.346L94.974 141.279L127.979 147.861L152.362 152.733L94.974 141.279L59.8321 182.304V215.282L76.5389 239.959L90.8793 261.135L116.081 248.45L145.213 233.785L166.012 191.955L188.831 165.452V173.968L191.773 175.925V177.686L200.022 220.09L208.265 177.686V175.906L211.172 173.968V165.452L233.99 191.955L254.787 233.785L283.922 248.45L309.122 261.135L323.462 239.959L340.17 215.282V182.304L305.027 141.279L247.64 152.733L272.022 147.861L305.027 141.279L334.296 153.346L358.288 135.648L353.348 100.657L377.56 77.7323L386.035 28.6646Z" fill="white"/>
</mask>
<g mask="url(#mask1_7_2155)">
<mask id="mask2_7_2155" style="mask-type:luminance" maskUnits="userSpaceOnUse" x="83" y="188" width="234" height="41">
<path d="M83.009 188.742H316.99V228.547H83.009V188.742Z" fill="white"/>
</mask>
<g mask="url(#mask2_7_2155)">
<g opacity="0.199997">
<mask id="mask3_7_2155" style="mask-type:luminance" maskUnits="userSpaceOnUse" x="83" y="188" width="40" height="41">
<path d="M83.009 188.742H122.815V228.547H83.009V188.742Z" fill="white"/>
</mask>
<g mask="url(#mask3_7_2155)">
<path d="M102.911 188.742C91.9186 188.742 83.0092 197.652 83.0092 208.644C83.0092 219.636 91.9186 228.546 102.911 228.546C113.905 228.546 122.815 219.636 122.815 208.644C122.815 197.652 113.905 188.742 102.911 188.742Z" fill="white"/>
</g>
<mask id="mask4_7_2155" style="mask-type:luminance" maskUnits="userSpaceOnUse" x="277" y="188" width="40" height="41">
<path d="M277.187 188.742H316.99V228.547H277.187V188.742Z" fill="white"/>
</mask>
<g mask="url(#mask4_7_2155)">
<path d="M297.088 188.742C286.094 188.742 277.185 197.652 277.185 208.644C277.185 219.636 286.094 228.546 297.088 228.546C308.08 228.546 316.99 219.636 316.99 208.644C316.99 197.652 308.08 188.742 297.088 188.742Z" fill="white"/>
</g>
</g>
</g>
<mask id="mask5_7_2155" style="mask-type:luminance" maskUnits="userSpaceOnUse" x="0" y="0" width="196" height="132">
<path d="M0 0.000265629H195.135V131.49H0V0.000265629Z" fill="white"/>
</mask>
<g mask="url(#mask5_7_2155)">
<g opacity="0.600006">
<path d="M-0.00122452 15.7903L195.134 131.49V115.7L-0.00122452 0.000266091V15.7903Z" fill="white"/>
</g>
</g>
<mask id="mask6_7_2155" style="mask-type:luminance" maskUnits="userSpaceOnUse" x="0" y="106" width="196" height="56">
<path d="M0 106.68H195.135V161.792H0V106.68Z" fill="white"/>
</mask>
<g mask="url(#mask6_7_2155)">
<g opacity="0.600006">
<path d="M-0.00122452 140.413L65.8 161.791L95.2053 140.27L195.134 160.97V147.102L-0.00122452 106.679V140.413Z" fill="white"/>
</g>
</g>
<mask id="mask7_7_2155" style="mask-type:luminance" maskUnits="userSpaceOnUse" x="204" y="0" width="196" height="132">
<path d="M204.867 0.000265629H400V131.49H204.867V0.000265629Z" fill="white"/>
</mask>
<g mask="url(#mask7_7_2155)">
<g opacity="0.600006">
<path d="M204.866 115.7V131.49L399.999 15.7903V0.000266091L204.866 115.7Z" fill="white"/>
</g>
</g>
<mask id="mask8_7_2155" style="mask-type:luminance" maskUnits="userSpaceOnUse" x="204" y="106" width="196" height="56">
<path d="M204.867 106.68H400V161.792H204.867V106.68Z" fill="white"/>
</mask>
<g mask="url(#mask8_7_2155)">
<g opacity="0.600006">
<path d="M204.866 160.973L304.792 140.272L334.198 161.794L399.999 140.415V106.682L204.866 147.104V160.973Z" fill="white"/>
</g>
</g>
</g>
</g>
</g>
<path d="M188.808 100.085L200 92.6447L198.457 115.149L188.808 100.085Z" fill="#F03759"/>
<path d="M198.457 115.148L211.15 100.085L200 92.6443L198.457 115.148Z" fill="#F06782"/>
<path d="M211.15 100.085L198.456 115.148L211.15 129.582V100.085Z" fill="#F04F6D"/>
<path d="M198.457 115.148L199.998 144.575L211.15 129.582L198.457 115.148Z" fill="#F06782"/>
<path d="M211.15 129.583L199.998 144.574L204.52 166.04L211.15 129.583Z" fill="#F04F6D"/>
<path d="M211.15 173.968L204.52 166.04L211.15 129.582V173.968Z" fill="#F06782"/>
<path d="M200 181.408L204.52 166.039L211.15 173.968L200 181.408Z" fill="#F03759"/>
<path d="M204.52 166.04L188.809 173.968L199.999 181.408L204.52 166.04Z" fill="#F04F6D"/>
<path d="M204.52 166.04L199.997 144.575L188.809 173.968L204.52 166.04Z" fill="#F03759"/>
<path d="M188.808 173.968V139.695L199.998 144.575L188.808 173.968Z" fill="#D4314F"/>
<path d="M199.998 144.575L198.457 115.148L188.808 139.696L199.998 144.575Z" fill="#F03759"/>
<path d="M198.457 115.148L188.808 100.085V139.696L198.457 115.148Z" fill="#D4314F"/>
</svg>
